<svg xmlns="http://www.w3.org/2000/svg" width="32" height="32" viewBox="0 0 32 32" version="1.1"><path d="M 0 16.025 L 0 32.050 16.250 31.775 L 32.500 31.500 32.775 15.750 L 33.051 0 16.525 0 L 0 0 0 16.025 M 0.405 16.500 C 0.406 25.300, 0.559 28.766, 0.745 24.203 C 0.930 19.639, 0.929 12.439, 0.742 8.203 C 0.555 3.966, 0.404 7.700, 0.405 16.500 M 12 7.927 C 12 12.730, 12.332 13.940, 13.750 14.311 C 14.713 14.562, 13.608 14.820, 11.295 14.884 C 7.312 14.994, 7.056 15.184, 6.434 18.500 C 5.959 21.033, 5.255 22, 3.889 22 C 2.352 22, 2 22.745, 2 26 L 2 30 6.500 30 L 11 30 11 24.083 C 11 20.286, 10.552 17.986, 9.750 17.662 C 9.063 17.385, 11.875 17.158, 16 17.158 C 20.125 17.158, 22.938 17.385, 22.250 17.662 C 21.448 17.986, 21 20.286, 21 24.083 L 21 30 25.500 30 L 30 30 30 26 C 30 22.745, 29.648 22, 28.111 22 C 26.745 22, 26.041 21.033, 25.566 18.500 C 24.945 15.189, 24.682 14.993, 20.705 14.864 C 18.392 14.789, 17.512 14.533, 18.750 14.294 C 20.628 13.933, 21 13.211, 21 9.930 C 21 6.667, 20.661 6, 19 6 C 17.667 6, 17 5.333, 17 4 C 17 2.533, 16.333 2, 14.500 2 C 12.115 2, 12 2.272, 12 7.927 M 18 3.500 C 18 4.325, 18.730 5, 19.622 5 C 20.951 5, 21.020 4.729, 20 3.500 C 19.315 2.675, 18.585 2, 18.378 2 C 18.170 2, 18 2.675, 18 3.500 M 15.269 7.693 C 16.242 7.947, 17.592 7.930, 18.269 7.656 C 18.946 7.382, 18.150 7.175, 16.500 7.195 C 14.850 7.215, 14.296 7.439, 15.269 7.693 M 15.269 9.693 C 16.242 9.947, 17.592 9.930, 18.269 9.656 C 18.946 9.382, 18.150 9.175, 16.500 9.195 C 14.850 9.215, 14.296 9.439, 15.269 9.693 M 15.269 11.693 C 16.242 11.947, 17.592 11.930, 18.269 11.656 C 18.946 11.382, 18.150 11.175, 16.500 11.195 C 14.850 11.215, 14.296 11.439, 15.269 11.693 M 3 19.500 C 1.980 20.729, 2.049 21, 3.378 21 C 4.270 21, 5 20.325, 5 19.500 C 5 18.675, 4.830 18, 4.622 18 C 4.415 18, 3.685 18.675, 3 19.500 M 27 19.500 C 27 20.325, 27.730 21, 28.622 21 C 29.951 21, 30.020 20.729, 29 19.500 C 28.315 18.675, 27.585 18, 27.378 18 C 27.170 18, 27 18.675, 27 19.500 M 5.269 23.693 C 6.242 23.947, 7.592 23.930, 8.269 23.656 C 8.946 23.382, 8.150 23.175, 6.500 23.195 C 4.850 23.215, 4.296 23.439, 5.269 23.693 M 24.269 23.693 C 25.242 23.947, 26.592 23.930, 27.269 23.656 C 27.946 23.382, 27.150 23.175, 25.500 23.195 C 23.850 23.215, 23.296 23.439, 24.269 23.693 M 5.269 25.693 C 6.242 25.947, 7.592 25.930, 8.269 25.656 C 8.946 25.382, 8.150 25.175, 6.500 25.195 C 4.850 25.215, 4.296 25.439, 5.269 25.693 M 24.269 25.693 C 25.242 25.947, 26.592 25.930, 27.269 25.656 C 27.946 25.382, 27.150 25.175, 25.500 25.195 C 23.850 25.215, 23.296 25.439, 24.269 25.693 M 5.269 27.693 C 6.242 27.947, 7.592 27.930, 8.269 27.656 C 8.946 27.382, 8.150 27.175, 6.500 27.195 C 4.850 27.215, 4.296 27.439, 5.269 27.693 M 24.269 27.693 C 25.242 27.947, 26.592 27.930, 27.269 27.656 C 27.946 27.382, 27.150 27.175, 25.500 27.195 C 23.850 27.215, 23.296 27.439, 24.269 27.693" stroke="none" fill="#040404" fill-rule="evenodd"/><path d="M 12 7.927 C 12 12.730, 12.332 13.940, 13.750 14.311 C 14.713 14.562, 13.608 14.820, 11.295 14.884 C 7.312 14.994, 7.056 15.184, 6.434 18.500 C 5.959 21.033, 5.255 22, 3.889 22 C 2.352 22, 2 22.745, 2 26 L 2 30 6.500 30 L 11 30 11 24.083 C 11 20.286, 10.552 17.986, 9.750 17.662 C 9.063 17.385, 11.875 17.158, 16 17.158 C 20.125 17.158, 22.938 17.385, 22.250 17.662 C 21.448 17.986, 21 20.286, 21 24.083 L 21 30 25.500 30 L 30 30 30 26 C 30 22.745, 29.648 22, 28.111 22 C 26.745 22, 26.041 21.033, 25.566 18.500 C 24.945 15.189, 24.682 14.993, 20.705 14.864 C 18.392 14.789, 17.512 14.533, 18.750 14.294 C 20.628 13.933, 21 13.211, 21 9.930 C 21 6.667, 20.661 6, 19 6 C 17.667 6, 17 5.333, 17 4 C 17 2.533, 16.333 2, 14.500 2 C 12.115 2, 12 2.272, 12 7.927 M 18 3.500 C 18 4.325, 18.730 5, 19.622 5 C 20.951 5, 21.020 4.729, 20 3.500 C 19.315 2.675, 18.585 2, 18.378 2 C 18.170 2, 18 2.675, 18 3.500 M 15.269 7.693 C 16.242 7.947, 17.592 7.930, 18.269 7.656 C 18.946 7.382, 18.150 7.175, 16.500 7.195 C 14.850 7.215, 14.296 7.439, 15.269 7.693 M 15.269 9.693 C 16.242 9.947, 17.592 9.930, 18.269 9.656 C 18.946 9.382, 18.150 9.175, 16.500 9.195 C 14.850 9.215, 14.296 9.439, 15.269 9.693 M 15.269 11.693 C 16.242 11.947, 17.592 11.930, 18.269 11.656 C 18.946 11.382, 18.150 11.175, 16.500 11.195 C 14.850 11.215, 14.296 11.439, 15.269 11.693 M 3 19.500 C 1.980 20.729, 2.049 21, 3.378 21 C 4.270 21, 5 20.325, 5 19.500 C 5 18.675, 4.830 18, 4.622 18 C 4.415 18, 3.685 18.675, 3 19.500 M 27 19.500 C 27 20.325, 27.730 21, 28.622 21 C 29.951 21, 30.020 20.729, 29 19.500 C 28.315 18.675, 27.585 18, 27.378 18 C 27.170 18, 27 18.675, 27 19.500 M 5.269 23.693 C 6.242 23.947, 7.592 23.930, 8.269 23.656 C 8.946 23.382, 8.150 23.175, 6.500 23.195 C 4.850 23.215, 4.296 23.439, 5.269 23.693 M 24.269 23.693 C 25.242 23.947, 26.592 23.930, 27.269 23.656 C 27.946 23.382, 27.150 23.175, 25.500 23.195 C 23.850 23.215, 23.296 23.439, 24.269 23.693 M 5.269 25.693 C 6.242 25.947, 7.592 25.930, 8.269 25.656 C 8.946 25.382, 8.150 25.175, 6.500 25.195 C 4.850 25.215, 4.296 25.439, 5.269 25.693 M 24.269 25.693 C 25.242 25.947, 26.592 25.930, 27.269 25.656 C 27.946 25.382, 27.150 25.175, 25.500 25.195 C 23.850 25.215, 23.296 25.439, 24.269 25.693 M 5.269 27.693 C 6.242 27.947, 7.592 27.930, 8.269 27.656 C 8.946 27.382, 8.150 27.175, 6.500 27.195 C 4.850 27.215, 4.296 27.439, 5.269 27.693 M 24.269 27.693 C 25.242 27.947, 26.592 27.930, 27.269 27.656 C 27.946 27.382, 27.150 27.175, 25.500 27.195 C 23.850 27.215, 23.296 27.439, 24.269 27.693" stroke="none" fill="#f5f5f5" fill-rule="evenodd"/></svg>